<?xml version="1.0" encoding="utf-8"?>
<!-- Generator: Adobe Illustrator 16.0.0, SVG Export Plug-In . SVG Version: 6.00 Build 0)  -->
<!DOCTYPE svg PUBLIC "-//W3C//DTD SVG 1.1//EN" "http://www.w3.org/Graphics/SVG/1.1/DTD/svg11.dtd">
<svg version="1.1" id="Layer_1" xmlns="http://www.w3.org/2000/svg" xmlns:xlink="http://www.w3.org/1999/xlink" x="0px" y="0px"
	 width="25px" height="700px" viewBox="0 0 25 700" >

	<path fill="#0053B1" d="M22.25,3.987h-6.723C15.527,2.338,14.189,1,12.538,1c-1.649,0-2.987,1.338-2.987,2.987H2.828
		c-0.412,0-0.747,0.335-0.747,0.747v19.423c0,0.412,0.335,0.747,0.747,0.747H22.25c0.412,0,0.748-0.335,0.748-0.747V4.734
		C22.998,4.323,22.662,3.987,22.25,3.987z M12.539,2.494c0.827,0,1.495,0.669,1.495,1.494c0,0.826-0.668,1.494-1.495,1.494
		c-0.825,0-1.494-0.668-1.494-1.494C11.044,3.162,11.713,2.494,12.539,2.494z M21.504,23.41H3.575V5.48h2.988v2.241
		c0,0.412,0.335,0.747,0.747,0.747h10.458c0.412,0,0.748-0.335,0.748-0.747V5.48h2.988V23.41z"/>
	<path fill="#0053B1" d="M11.044,21.041l-4.791-5.539l1.366-1.366l3.425,2.679l6.415-5.667l1.367,1.366L11.044,21.041z"/>	
	<path fill="#0053B1" d="M22.629,103.951v7.917c0,0.262-0.212,0.475-0.475,0.475h-7.916c-0.262,0-0.475-0.213-0.475-0.475v-1.873
		l0,0c0-0.262,0.213-0.474,0.475-0.474c0.006,0,0.016,0,0.021,0l4.014,0.192c-1.143-1.698-3.729-3.076-5.773-3.076
		c-3.839,0-6.956,3.116-6.956,6.955c0,3.84,3.116,6.956,6.956,6.956c1.449,0,3.507-0.776,4.594-1.733
		c0.074-0.063,0.215-0.117,0.313-0.117c0.108,0,0.259,0.063,0.336,0.139l1.344,1.344c0.076,0.076,0.14,0.227,0.14,0.336
		c0,0.117-0.07,0.275-0.158,0.354c-1.541,1.394-4.478,2.525-6.555,2.525h-0.015c-5.41,0-9.797-4.385-9.801-9.794
		c-0.004-5.401,4.4-9.808,9.801-9.808h0.011c2.498,0,5.84,1.546,7.455,3.451l-0.158-3.271c0-0.006,0-0.016,0-0.022
		c0-0.262,0.213-0.474,0.476-0.474h1.873C22.417,103.476,22.629,103.688,22.629,103.951z"/>
	<path fill="#0053B1" d="M2.886,213.643c-0.395-0.395-0.395-1.035,0-1.432l1.431-1.431c0.395-0.396,1.036-0.396,1.431,0l4.431,4.431
		l9.488-9.488c0.395-0.396,1.035-0.396,1.43,0l1.433,1.43c0.395,0.396,0.395,1.037,0,1.433L10.894,220.22
		c-0.395,0.395-1.035,0.395-1.431,0L2.886,213.643z"/>
	<path fill="#0053B1" d="M6.176,305.215c0-0.26,0.213-0.475,0.474-0.475h1.897c0.261,0,0.475,0.215,0.475,0.475v6.971l7.727-7.152
		c0.813-0.676,2.074-0.111,2.074,0.973v15.176c0,1.082-1.261,1.648-2.074,0.973l-7.727-7.111v6.928c0,0.262-0.214,0.475-0.475,0.475
		H6.65c-0.261,0-0.474-0.213-0.474-0.475V305.215z"/>
	<path fill="#0053B1" d="M19.091,416.76c0.485,0.484,0.485,1.271,0,1.758l-0.879,0.879c-0.485,0.484-1.272,0.484-1.759,0
		l-3.954-3.955l-3.955,3.955c-0.485,0.484-1.273,0.484-1.758,0l-0.879-0.879c-0.485-0.486-0.485-1.273,0-1.758l3.955-3.955
		l-3.955-3.955c-0.485-0.486-0.485-1.273,0-1.758l0.879-0.879c0.486-0.486,1.273-0.486,1.758,0l3.955,3.955l3.954-3.955
		c0.486-0.486,1.273-0.486,1.759,0l0.879,0.879c0.485,0.486,0.485,1.271,0,1.758l-3.954,3.955L19.091,416.76z"/>
	<path fill="#0053B1" d="M22.616,513.128v4.426c0,0.35-0.283,0.633-0.632,0.633h-1.897v3.793c0,0.699-0.565,1.267-1.265,1.267H6.176
		c-0.698,0-1.265-0.566-1.265-1.267v-3.793H3.014c-0.349,0-0.632-0.283-0.632-0.633v-4.426c0-1.398,1.132-2.529,2.529-2.529v-6.324
		c0-0.696,0.566-1.264,1.265-1.264h10.857c0.336,0,0.658,0.133,0.895,0.369l1.789,1.789c0.236,0.238,0.37,0.559,0.37,0.895v4.535
		C21.484,510.599,22.616,511.729,22.616,513.128z M17.559,508.069h-1.897c-0.349,0-0.632-0.282-0.632-0.633v-1.896H7.441v6.321
		h10.118V508.069z M17.559,516.921H7.44v3.795h10.117v-3.795H17.559z M20.402,513.761c0-0.525-0.424-0.949-0.947-0.949
		s-0.949,0.424-0.949,0.949c0,0.523,0.426,0.947,0.949,0.947S20.402,514.284,20.402,513.761z"/>	
	<path fill="#0053B1" d="M11.31,616.836H7.697c-1.795,0-3.252-1.457-3.252-3.252v-7.949c0-1.795,1.457-3.252,3.252-3.252h3.613
		c0.192,0,0.361,0.169,0.361,0.361c0,0.316,0.146,1.084-0.361,1.084H7.697c-0.993,0-1.807,0.813-1.807,1.807v7.949
		c0,0.994,0.813,1.807,1.807,1.807h3.252c0.282,0,0.723-0.057,0.723,0.361C11.671,616.068,11.818,616.836,11.31,616.836z
		 M21.936,610.117l-6.143,6.143c-0.135,0.136-0.316,0.215-0.508,0.215c-0.396,0-0.723-0.327-0.723-0.723V612.5H9.503
		c-0.396,0-0.723-0.327-0.723-0.723v-4.336c0-0.396,0.327-0.723,0.723-0.723h5.059v-3.252c0-0.396,0.326-0.723,0.723-0.723
		c0.191,0,0.373,0.079,0.508,0.215l6.143,6.143c0.135,0.135,0.215,0.315,0.215,0.508S22.07,609.982,21.936,610.117z"/>
</svg>
